# xmcd
#
# Track frame offsets: 
#        150
#        4578
#        21365
#        40171
#        73498
#        98148
#        120939
#        147563
#        165319
#        183611
#        205287
#        228204
#        253304
#        262090
#        270903
#        300555
#
# Disc length: 4476 seconds
#
# Revision: 2
# Processed by: cddbd v1.5.2PL0 Copyright (c) Steve Scherf et al.
# Submitted via: ExactAudioCopy v0.95b3
#
DISCID=df117a10
DTITLE=Molly Hatchet - Live In Hamburg
DYEAR=2005
DGENRE=Southern Rock
TTITLE0=Intro (Live)
TTITLE1=Whiskey Man (Live)
TTITLE2=Bounty Hunter (Live)
TTITLE3=Gator Country (Live)
TTITLE4=Moonlight Dancin' On A Bayou (Live)
TTITLE5=Fall Of The Peacemakers (Live)
TTITLE6=Devil's Canyon (Live)
TTITLE7=Drum Solo (Live)
TTITLE8=Beatin' The Odds (Live)
TTITLE9=Son Of The South (Live)
TTITLE10=The Creeper (Live)
TTITLE11=The Rainbow Bridge (Live)
TTITLE12=Keyboard Solo (Live)
TTITLE13=Instrumental (Live)
TTITLE14=Guitar Solo (Live)
TTITLE15=Dreams I'll Never See (Live)
EXTD=YEAR: 2005
EXTT0=
EXTT1=
EXTT2=
EXTT3=
EXTT4=
EXTT5=
EXTT6=
EXTT7=
EXTT8=
EXTT9=
EXTT10=
EXTT11=
EXTT12=
EXTT13=
EXTT14=
EXTT15=
PLAYORDER=
